/* XPM */
static char *armature[]={
"16 16 3 1",
"a c None",
". c None",
"# c #000000",
"......####......",
".....#....#.....",
".....#....#.....",
"...aa#a...#aaa..",
"...aa#a...#aaa..",
"...aa#####aaaa..",
"...a##a####aaa..",
"...##aa##.a##a..",
"...#aaa##.aa#a..",
"...aaaa##.aaaa..",
"...aaaa##.aaaa..",
"...aaaa##.aaaa..",
"...aaa#aa##aaa..",
".....##.aa#.....",
".....#....##....",
"....##.....#...."};
