/* XPM */
static char *bone[]={
"16 16 8 1",
"c c None",
". c None",
"# c #000000",
"a c #0000c0",
"d c #0000ff",
"b c #58a8ff",
"e c #a8dcff",
"f c #ffffff",
"............##..",
"...........#ab#c",
"ccccccccc.#aade#",
"cccccccccc#adef#",
"c.cccccccc##ef#c",
"cccccccc##d###cc",
"cccccc##dd#ccccc",
"cc.c##addb#ccccc",
"..c#aaadb#cccccc",
"..#aaadbb#cccccc",
"..##ddbe#ccccccc",
".#ab#bef#ccccccc",
"#aadb#f#cccccccc",
"#adde##ccccccccc",
"c#ef#...ccccccc.",
"..##...ccc......"};
