/* XPM */
static char *breaks[]={
"16 16 4 1",
". c None",
"# c #800000",
"a c #c00000",
"b c #ff0000",
"................",
"................",
"................",
"...###a...###a..",
"...#aab...#aab..",
"...#aab...#aab..",
"...#aab...#aab..",
"...#aab...#aab..",
"...#aab...#aab..",
"...#aab...#aab..",
"...#aab...#aab..",
"...#aab...#aab..",
"...abbb...abbb..",
"................",
"................",
"................"};
