/* XPM */
static char *buffer[]={
"16 16 6 1",
"# c None",
". c None",
"a c #000000",
"c c #58a8ff",
"d c #a8dcff",
"b c #ffffff",
"..##########....",
"##############.#",
"###############.",
".###############",
"aaaaaaaaaaaaaaaa",
"abbaccabbaddacca",
"abbaccabbaddacca",
"abbaccabbaddacca",
"abbaccabbaddacca",
"abbaccabbaddacca",
"abbaccabbaddacca",
"abbaccabbaddacca",
"aaaaaaaaaaaaaaaa",
"################",
"#.#############.",
"##..#########..."};
