/* XPM */
static char *cam[]={
"16 16 9 1",
"# c None",
". c None",
"a c #000000",
"d c #303030",
"g c #585858",
"e c #808080",
"b c #a0a0a0",
"c c #c3c3c3",
"f c #ffffff",
".....###aaa####.",
"#######abbba####",
"##aaa#abbcbba###",
"#abbbaabcdeba###",
"#abcbbabcdeba###",
"abcdebabbebba###",
"abcdebdbbbbaa###",
"#abebbbaaaacaaa#",
"#abbbaaccdcaefea",
"##aaadccedcafffa",
"#acccaeeedcaefea",
"#acbbaeegabbaaa#",
".abbeaggggabbba#",
"#aeeegagdddaaa##",
"#aeggddaaaa#####",
"..aaadd#########"};
