/* XPM */
static char *color[]={
"16 16 19 1",
". c None",
"# c #000000",
"q c #0080ff",
"h c #00ff00",
"p c #00ffd5",
"m c #a8dcff",
"k c #c0ffc0",
"n c #c0ffff",
"c c #c8ff00",
"g c #e6ffad",
"d c #ff0000",
"o c #ff00ff",
"b c #ffae00",
"i c #ffc0c0",
"l c #ffc0ff",
"e c #ffe7b3",
"a c #ffff00",
"f c #ffffc0",
"j c #ffffff",
".....######.....",
"...##aaaaaa##...",
"..#bbbaaaaccc#..",
".#bbbbaaaacccc#.",
".#bbbbaaaacccc#.",
"#dbbbbeffgcccch#",
"#ddddeeffgghhhh#",
"#ddddiijjkkhhhh#",
"#ddddiijjkkhhhh#",
"#ddddllmmnnhhhh#",
"#doooolmmnpppph#",
".#ooooqqqqpppp#.",
".#ooooqqqqpppp#.",
"..#oooqqqqppp#..",
"...##qqqqqq##...",
".....######....."};
