/* XPM */
static char *config[]={
"16 16 7 1",
"# c None",
". c None",
"a c #000000",
"b c #303030",
"d c #585858",
"e c #808080",
"c c #a0a0a0",
".......#aaa#....",
"....###abbca##..",
"...###abdca###..",
"..####abea#####.",
"..####abea####a.",
"######abdea##aba",
"######abddeaabda",
"#####abdddddddca",
"####abdddeeeeca#",
"###abdddcaaaaa##",
".#abdddca#######",
"#abdddca########",
"abdddca#########",
"aeddca########..",
".aeca#######....",
"..aa...##......."};
