/* XPM */
static char *del[]={
"16 16 3 1",
". c None",
"# c #000000",
"a c #ff0000",
"...........####.",
"###........#aa#.",
"#aa#.......#aa#.",
".#aa#.....#aa#..",
"..#aa#...#aaa#..",
"...#aa##.#aa#...",
"....#aaa#aaa#...",
".....#aaaaa#....",
"......#aaa#.....",
"......#aaaa#....",
".....#aaaaaa#...",
"....#aaa##aaa#..",
"..##aaa#..#aaa#.",
".#aaa##....#aaa#",
"#aa##.......#aa#",
"###..........##."};
