/* XPM */
static char *edit[]={
"16 16 9 1",
". c None",
"# c #000000",
"a c #000040",
"b c #0000c0",
"c c #0000ff",
"d c #58a8ff",
"e c #785800",
"f c #c69100",
"g c #ffbb00",
"...........###..",
"..........#aab#.",
".........#aaccb#",
"........#aacccd#",
".......#aacccdd#",
"......#aacccdd#.",
".....#aabccdd#..",
"....#aacccdd#...",
"...#aacccdd#....",
"...##cccdd#.....",
"..#ef#cdd#......",
"..#eff#d#.......",
".#efgg##........",
".#fg##..........",
"####............",
"##.............."};
