/* XPM */
static char *fragmentshader[]={
"16 16 11 1",
". c None",
"# c #000000",
"c c #000040",
"a c #0000c0",
"b c #0000ff",
"g c #0058c0",
"h c #0080ff",
"e c #58a8ff",
"d c #a8dcff",
"f c #c0ffff",
"i c #ffffff",
".....######.....",
"...##aaaaba##...",
"..#caadebbbba#..",
".#ccaaefebbbgg#.",
".#caabbefehhgge#",
"#ccaabbbeifhhef#",
"#caabbbbhfiffie#",
"#caabbbbhhfiifg#",
"#caabbbhhefiifg#",
"#cabbbbhheiffie#",
"#ccbbbbhhifhhei#",
".#abbbbefhhhbbe#",
".#abbbbdehhhba#.",
"..#bbbebbbbbb#..",
"...##aabbba##...",
".....######....."};
