/* XPM */
static char *importer[]={
"16 16 12 1",
"# c None",
". c None",
"a c #000000",
"g c #008000",
"h c #00c000",
"i c #00ff00",
"d c #800000",
"b c #c00000",
"j c #c0ffc0",
"c c #ff0000",
"e c #ffc0c0",
"f c #ffffff",
"....###aa#######",
"######abca####.#",
"#####adbeca#####",
"####addbceca####",
"###adddbcecca###",
"##adddbbccfcca##",
"#addddbbbcfccca#",
"##aaddbbbccfaa##",
"#aaaaaaaaaaaaaa#",
"#agggggggggggga#",
"##aahhhhhhhhaa##",
"###aaaiiiiaaa###",
".#aiiiiiiiiiia##",
".##aaijiijiaa##.",
".####aajjaa####.",
"...####aa####..."};
