/* XPM */
static char *index[]={
"16 16 3 1",
". c None",
"# c #000000",
"a c #ffffff",
"....#....###....",
"...#a##.#aaa##..",
"..#aa#a#a##a#a#.",
".#a#a#a#a##a##a#",
"..##a#aaa#a###a#",
"...#a###a#a#aa#.",
"...#a#.#a#a###a#",
"...#a#.##.#.##a#",
"....#.#aa#.#aa#.",
"..##.#a##a####..",
".#aa#.###a#aaa#.",
"#a##...#a##a##..",
"#aaa#.#a###aa#..",
"#a#a##aaaa###a#.",
"#aaa#.#####aa#..",
".###.......##..."};
