/* XPM */
static char *load[]={
"16 16 5 1",
"# c None",
". c None",
"a c #000000",
"c c #808000",
"b c #ffffc0",
".......#####.#..",
"......#.#aaa##..",
"......#.a###a#a#",
"####..#######aa#",
"#aa#########aaa#",
"abbaaaaaaa######",
"abbbbbbbbba####.",
"abbbbbbbbba###.#",
"abbbbbbaaaaaaaa#",
"abbbbbacccccccca",
"abbbbacccccccca.",
"abbbacccccccca..",
"abbacccccccca...",
"abacccccccca....",
"aacccccccca.....",
"#aaaaaaaaa......"};
