/* XPM */
static char *matrix[]={
"16 16 9 1",
". c None",
"# c #000000",
"b c #5f5f5f",
"f c #646464",
"g c #7e7e80",
"d c #b5b5b5",
"e c #bababa",
"a c #bfbfbf",
"c c #dedede",
".#..............",
"a#a.............",
"b#b.............",
"###.............",
".#........cd....",
".#......ef#c....",
".#.....g##f.....",
".#.....d##e.....",
".#....d#dg......",
".#...d#d........",
".#..d#d.........",
".#.d#d..........",
".#d#d...........",
".##d........#ba.",
".###############",
"............#ba."};
