/* XPM */
static char *node[]={
"16 16 7 1",
"a c None",
". c None",
"# c #000000",
"b c #800000",
"e c #c00000",
"c c #ff0000",
"d c #ffc0c0",
"..##......aa....",
".#bb#..aaaaaa.a.",
"#bccc#a##aaaaaa.",
"#bcdc##bb##aaaaa",
".#cc#bbbbee#aaaa",
"..##bbbeeeee###a",
"..a#bbeeeee#eee#",
"..#bbbeeccc#edd#",
".a#bbeeccccc#ec#",
".aa#beeccddc###.",
"a.a##eeccdde#...",
"aa#bb#eeccc#....",
".#bccc#ee##.....",
"a#bcdc###a......",
"aa#cc#..........",
"aaa##..........."};
