/* XPM */
static char *normal[]={
"16 16 5 1",
"b c None",
"# c None",
". c #000000",
"c c #0080ff",
"a c #00ff00",
".###############",
"#..#############",
"#.a..###########",
"##.aa..#########",
"##.aaaa.########",
"###.aaaa.#######",
"###.aaa.b#######",
"####.a.a.b######",
"#####.b.a....###",
"#######b.accc.##",
"#######b.cacc.##",
"#######b.cccc.##",
"########.cccc.##",
"#########....###",
"################",
"################"};
