/* XPM */
static char *quaternion[]={
"16 16 11 1",
"# c None",
". c None",
"a c #000000",
"d c #0000c0",
"g c #008080",
"b c #0080ff",
"i c #00c000",
"h c #00ff00",
"e c #00ffff",
"f c #ff0000",
"c c #ffffff",
".#a#....aa......",
"#aba...accaa....",
"adbda.acaacca...",
"abbba.aca.aaca..",
".aba.aeacaffaca.",
".aba.aeacaffaca.",
".abaaeaaacaa.aca",
".abaaeaafaccaaca",
".abaeaafaaaacca.",
".abaeafaaaeeaa..",
".abgafaaeeaa....",
".abgfaeeaa..aa#.",
".abfggaaaaaahia#",
".ahhhhhhhhhhhhha",
".aaaaaaaaaaahia#",
"............aa#."};
