/* XPM */
static char *reload[]={
"16 16 8 1",
". c None",
"# c #000000",
"d c #004000",
"a c #008000",
"b c #00c000",
"c c #00ff00",
"f c #808000",
"e c #ffffc0",
"......####....#.",
"....##abbb##.#c#",
"...#aaabbbbb#cc#",
"..d##a####bbccc#",
".d#ee######cccc#",
".d#eeeeeeee#ccc#",
"#a#eeeeeeee###a#",
"#a#eeee######da#",
"#a#eee#ffffff#a#",
"#a#ee#fffffff#a#",
"#c#e#fffffff#a#.",
"#cc#fffffff#aa#.",
"#ccc#######aa#..",
"#cc#bbbbbbba#...",
"#c#.##bbbb#.....",
".#....####......"};
