/* XPM */
static char *run[]={
"16 16 7 1",
"a c None",
". c None",
"# c #000000",
"b c #008000",
"c c #00c000",
"e c #00ff00",
"d c #c0ffc0",
".......##aaa....",
"...aaa#bc#aaa.aa",
"...##a#bd#a##aaa",
"..#bb#bbcc#be#aa",
"..#bcbbcccccd#aa",
"...#bccddccc#aaa",
".##bccd##cccc##a",
"#bbccd#aa#bcccd#",
"#bcccd#aa#bccdd#",
".##cccc##bccd##.",
"..a#cccbbccd#aa.",
"..#bccccccdcd#a.",
".a#ed#cccd#dd#..",
".aa##a#cd#a##...",
"aaaaaa#cd#......",
"aaa....##......."};
