/* XPM */
static char *save[]={
"16 16 7 1",
"# c None",
". c None",
"a c #000000",
"e c #0000c0",
"b c #0058c0",
"d c #808080",
"c c #ffffff",
"........###.....",
"..aaaaaaaaaaaa#.",
".abcccccccccbba#",
"#abcdddddddcbba#",
"#abcccccccccbba#",
"#abccdddddccbba#",
"#abcccccccccbba#",
"#abbbbbbbbbbbba#",
"#abbbbbbbbbbbba#",
"#abbdddddeeebba#",
"#abbdddddeeebba.",
"#abbdddddeeebba.",
"#abbdddddeeebba#",
"#abbdddddeeeba.#",
"##aaaaaaaaaaa###",
"#############..."};
