/* XPM */
static char *script_run[]={
"16 16 5 1",
". c None",
"# c #000000",
"a c #39ff74",
"b c #77ffa7",
"c c #c0ffc0",
"..############..",
".#abbcccccccc##.",
"#abbcccccccc#aa#",
"#abbcccccccc#b#.",
"#abbcccccccc##..",
".#abbcccccccc#..",
".#abbcccccccc#..",
".#abbcccccccc#..",
"..#abbcccccccc#.",
"..#abbcccccccc#.",
"..#abbcccccccc#.",
"...#abbcccccccc#",
".#############c#",
".#abbcccccccc#b#",
"#abbcccccccc#a##",
".##############."};
