/* XPM */
static char *start[]={
"16 16 6 1",
". c None",
"# c #008000",
"a c #00ab00",
"b c #00c000",
"c c #00d900",
"d c #00ff00",
"................",
".##.............",
".#a##...........",
".#aaa##.........",
".#abbaa##.......",
".#abbbbaa##.....",
".#abbbbbbaa##...",
".#abbbbbbbbaa##.",
".#abbbbbbbbccdd.",
".#abbbbbbccdd...",
".#abbbbccdd.....",
".#abbccdd.......",
".#accdd.........",
".acdd...........",
".dd.............",
"................"};
