/* XPM */
static char *stream[]={
"16 16 7 1",
"# c None",
". c None",
"a c #000000",
"b c #303030",
"c c #585858",
"d c #a0a0a0",
"e c #dcdcdc",
"..######.###....",
"...####aaaaaaaa#",
"..#####abbbbbba#",
".######abbbbbba#",
".####aaaaaaaaba#",
"##.##accccccaaa#",
"#####acccccca###",
"..#aaaaaaaaca##.",
"..#addddddaaa###",
".##adddddda##.##",
"#aaaaaaaada.##..",
"#aeeeeeeaaa#####",
"#aeeeeeea#......",
"#aeeeeeea#......",
"#aaaaaaaa##.....",
"###########....."};
