/* XPM */
static char *texture[]={
"16 16 11 1",
". c #000000",
"b c #303030",
"a c #a0a0a0",
"# c #a85700",
"d c #c0c0ff",
"e c #c0ffc0",
"f c #c0ffff",
"h c #ffc0c0",
"g c #ffc0ff",
"i c #ffffc0",
"c c #ffffff",
"................",
".####a#####a###.",
".##bbb####bbb##.",
".abccca...accba.",
".#bcddddddeec.#.",
".#bcddddddeec.#.",
".abcccccdee..aa.",
".##b...cde.####.",
".####a.cff.####.",
".aaaaa.cff.aaaa.",
".#a##.cghh..##a.",
".#a##.hhhhi.##a.",
".aaaa.giiii.aaa.",
".###a......a###.",
".###a######a###.",
"................"};
