/* XPM */
static char *uniform[]={
"16 16 7 1",
". c None",
"# c #000000",
"d c #58a8ff",
"c c #a8dcff",
"e c #c0c000",
"b c #c0ffc0",
"a c #ffff00",
"................",
"...####..####...",
"...#aa#..#aa#...",
"...#aa#..#aa#...",
"####aa####aa####",
"#bb#aa#cc#aa#dd#",
"#bb#aa#cc#aa#dd#",
"#bb#aa#cc#aa#dd#",
"#bb#aa#cc#aa#dd#",
"#bb#aa#cc#aa#dd#",
"#bb#aa#cc#aa#dd#",
"#bb#aa#cc#aa#dd#",
"####aa####aa####",
"...#eaaaaaae#...",
"....#eaaaae#....",
".....######....."};
