/* XPM */
static char *uvcoord[]={
"16 16 5 1",
"# c None",
"b c #000000",
"a c #0000c0",
". c #00ff00",
"c c #ff0000",
"..#a###a##a###a#",
"..#a###a##a###a#",
"..#a###a##a###a#",
"..#a###a##a###a#",
"..#a###a###a#a##",
"..#a###a###a#a##",
"..##aaa#####a###",
"..##############",
"..##aaa#aaa#a#a#",
"..###a##a###a#a#",
"..###a##aa###a##",
"..###a##a###a#a#",
"..###a##aaa#a#a#",
"..##############",
"bbcccccccccccccc",
"bbcccccccccccccc"};
