/* XPM */
static char *vertex[]={
"16 16 5 1",
". c None",
"c c #000000",
"a c #002ffb",
"# c #8199ff",
"b c #ffffff",
"................",
".......#a#......",
".......aba......",
".......#a#......",
"......c..c......",
".....c....c.....",
"....c.....c.....",
".#a#.......c....",
".aba.......c....",
".#a#c.......c...",
".....cc.....c...",
".......cc....c..",
".........cc..c..",
"...........cc#a#",
".............aba",
".............#a#"};
