/* XPM */
static char *vertexshader[]={
"16 16 5 1",
". c None",
"# c #000000",
"b c #000040",
"c c #0000ff",
"a c #0080ff",
".....######.....",
"...##..aa..##...",
"..#b...bbb...#..",
".#..b.b...b.b.#.",
".#..ccc....b..#.",
"#...cccb..ccc..#",
"#..bccc.bbcccbb#",
"#ccb..b...ccc..#",
"#ccb...b..b.b..#",
"#...b.cccb..b..#",
"#....bcccb...b.#",
".#..bbccc.b.cc#.",
".#cc..b....bcc#.",
"..#c...b..b..#..",
"...##..bab.##...",
".....######....."};
