/* XPM */
static char *world[]={
"16 16 9 1",
"# c None",
". c None",
"a c #000000",
"c c #0000ff",
"d c #008000",
"e c #00c000",
"f c #c0c000",
"g c #ffff00",
"b c #ffffff",
"...##aaaaaa###..",
"...aabbbbbbaa###",
"..accbbcddcdda##",
".adddbccddeddda#",
".adeecceeedddfa#",
"adeecccececffffa",
"agcecccggcgffffa",
"agcccccggggfceea",
"agcfcccceeefccea",
"agcccccceeeeccca",
"aeeecccceeecccca",
"#aeedccccggccca.",
"#affdccccccccca.",
"##afccccccccca..",
"###aabbbbbbaa...",
"#####aaaaaa....."};
